<svg width="19" height="24" viewBox="0 0 19 24" fill="none" xmlns="http://www.w3.org/2000/svg">
<path fill-rule="evenodd" clip-rule="evenodd" d="M5.00008 22H13.0001C13.5524 22 14.0001 22.4477 14.0001 23C14.0001 23.5128 13.614 23.9355 13.1167 23.9933L13.0001 24H5.00008C4.4478 24 4.00008 23.5523 4.00008 23C4.00008 22.4872 4.38612 22.0645 4.88346 22.0067L5.00008 22H13.0001H5.00008ZM17.1012 10.6035C17.6533 10.6197 18.0876 11.0804 18.0714 11.6324C18.0294 13.0647 17.5713 14.5824 16.7942 15.9284C14.3089 20.233 8.80463 21.7079 4.5 19.2226C1.74646 17.6329 0.0720898 14.7458 0.000997181 11.6258C-0.0115843 11.0737 0.425815 10.6159 0.977957 10.6033C1.5301 10.5907 1.9879 11.0281 2.00048 11.5803C2.05582 14.0091 3.35749 16.2536 5.5 17.4906C8.84805 19.4236 13.1292 18.2764 15.0622 14.9284C15.679 13.86 16.0403 12.6628 16.0723 11.5737C16.0885 11.0217 16.5492 10.5873 17.1012 10.6035ZM9.00008 0C11.7615 0 14.0001 2.23858 14.0001 5V11.5C14.0001 14.2614 11.7615 16.5 9.00008 16.5C6.23866 16.5 4.00008 14.2614 4.00008 11.5V5C4.00008 2.23858 6.23866 0 9.00008 0Z" fill="#0584FE"/>
</svg>
