<svg width="250" height="250" viewBox="0 0 250 250" fill="none" xmlns="http://www.w3.org/2000/svg">
<rect x="1" y="1" width="248" height="248" rx="51" fill="white" stroke="#787880" stroke-opacity="0.2"/>
<path fill-rule="evenodd" clip-rule="evenodd" d="M125 32C70.3521 32 28 71.8237 28 125.608C28 153.743 39.5932 178.053 58.4662 194.848C60.0471 196.266 61.0034 198.227 61.0815 200.343L61.6085 217.508C61.7841 222.983 67.4636 226.536 72.499 224.342L91.7429 215.896C93.3823 215.178 95.1974 215.042 96.9149 215.508C105.756 217.935 115.183 219.216 125 219.216C179.648 219.216 222 179.393 222 125.608C222 71.8237 179.648 32 125 32Z" fill="url(#paint0_linear_0_4)"/>
<path fill-rule="evenodd" clip-rule="evenodd" d="M66.7557 153.941L95.2533 109.034C99.7816 101.899 109.502 100.115 116.295 105.176L138.956 122.064C141.044 123.615 143.894 123.596 145.963 122.045L176.569 98.9711C180.648 95.8881 185.996 100.755 183.244 105.059L154.766 149.946C150.238 157.082 140.517 158.866 133.725 153.805L111.064 136.917C108.975 135.365 106.125 135.385 104.056 136.936L73.4312 160.029C69.3518 163.112 64.0036 158.245 66.7557 153.941Z" fill="white"/>
<defs>
<linearGradient id="paint0_linear_0_4" x1="27.9988" y1="32" x2="27.9988" y2="225.002" gradientUnits="userSpaceOnUse">
<stop stop-color="#00B2FF"/>
<stop offset="1" stop-color="#006AFF"/>
</linearGradient>
</defs>
</svg>
